# xmcd
#
# Track frame offsets:
#	150
#	18837
#	36530
#	51130
#	63767
#	79472
#	97710
#	111700
#	124602
#	136800
#	157547
#	170417
#	183067
#	198557
#	214585
#	226752
#	240735
#	251390
#	263720
#	281935
#
# Disc length: 3923 seconds
#
# Revision: 1
# Processed by: cddbd v1.4PL0 Copyright (c) Steve Scherf et al.
# Submitted via: audiograbber 1.80
#
DISCID=090f5114
DTITLE=Ike and Tina Turner - The Sensational Ike and Tina Turner Volume 2
DYEAR=1900
DGENRE=
TTITLE0=Philadelphia Freedom
TTITLE1=You Can't Have Your Cake And Eat It Too
TTITLE2=Baby Get It On
TTITLE3=Daily Bread
TTITLE4=Come Together
TTITLE5=He Belongs To Me
TTITLE6=Ooh-Poo-Pah-Do
TTITLE7=I Want To Take You Higher
TTITLE8=We Need An Understanding
TTITLE9=Never Been To Spain
TTITLE10=Country Girl, City Man
TTITLE11=Ya, Ya
TTITLE12=Why Sing The Blues
TTITLE13=Living For The City
TTITLE14=Use Me
TTITLE15=Sweet Rhode Island Red
TTITLE16=The Loco-Motion
TTITLE17=Stagger Lee
TTITLE18=Sugar, Sugar
TTITLE19=I'm Movin' On
EXTD=
EXTT0=
EXTT1=
EXTT2=
EXTT3=
EXTT4=
EXTT5=
EXTT6=
EXTT7=
EXTT8=
EXTT9=
EXTT10=
EXTT11=
EXTT12=
EXTT13=
EXTT14=
EXTT15=
EXTT16=
EXTT17=
EXTT18=
EXTT19=
PLAYORDER=
